<?xml version="1.0" encoding="iso-8859-1"?>
<!-- Generator: Adobe Illustrator 19.0.0, SVG Export Plug-In . SVG Version: 6.00 Build 0)  -->
<svg version="1.1" id="Capa_1" xmlns="http://www.w3.org/2000/svg" xmlns:xlink="http://www.w3.org/1999/xlink" width="80px" height="80px"
	 viewBox="0 0 512.001 512.001" style="enable-background:new 0 0 512.001 512.001;" xml:space="preserve">
<g>
	<g>
		<path d="M423.688,261.052c-0.044-0.43-0.125-0.851-0.224-1.267c-7.102-38.712-27.354-73.133-56.2-98.096
			c1.546-0.719,2.912-1.818,3.931-3.247c1.877-2.631,2.366-6.008,1.313-9.064l-12.912-37.483l12.912-37.483
			c1.053-3.056,0.564-6.432-1.313-9.064c-1.877-2.631-4.909-4.193-8.142-4.193h-23.806c-2.902,0-5.661,1.261-7.561,3.455
			l-16.53,19.093l-27.936-0.86l10.582-71.377c0.427-2.877-0.42-5.797-2.319-7.999C293.583,1.266,290.82,0,287.911,0h-28.284
			c-3.865,0-7.385,2.228-9.039,5.722l-35.748,75.527l-19.798-0.241l-24.129-0.759c-17.528-0.556-31.966,13.865-31.966,31.647
			c0,8.275,3.169,16.136,8.923,22.135c5.949,6.202,13.855,9.581,22.284,9.517c-17.468,10.219-33.143,23.542-46.089,39.391
			c-7.551,9.244-14.059,19.235-19.465,29.764c-0.33,0.525-0.609,1.078-0.837,1.654c-11.752,23.512-18.026,49.645-18.026,76.204
			c0,78.452,53.34,144.668,125.654,164.32c0.381,0.128,0.764,0.232,1.151,0.313c13.878,3.667,28.442,5.629,43.457,5.629
			c32.088,0,62.128-8.927,87.775-24.42c0.711-0.328,1.39-0.749,2.027-1.254c48.268-30.086,80.461-83.645,80.461-144.589
			C426.263,280.516,425.373,270.656,423.688,261.052z M162.303,120.186c-2.133-2.224-3.356-5.245-3.356-8.29
			c0-6.436,5.189-11.857,11.337-11.657l24.225,0.762c0.064,0.002,0.129,0.003,0.193,0.004l26.311,0.32c0.04,0,0.081,0,0.122,0
			c3.861,0,7.383-2.225,9.038-5.722L265.958,20h10.362l-10.53,71.027c-0.419,2.824,0.389,5.692,2.22,7.881
			c1.831,2.19,4.511,3.493,7.364,3.581l43.922,1.352c3.04,0.102,5.898-1.174,7.868-3.45l16.653-19.235h5.215l-9.468,27.483
			c-0.727,2.11-0.727,4.403,0,6.514l9.468,27.483h-5.215L327.164,123.4c-1.971-2.275-4.854-3.547-7.868-3.45l-43.922,1.351
			c-2.853,0.087-5.532,1.391-7.364,3.58c-1.721,2.058-2.523,4.714-2.268,7.37c0.004,0.058,0.011,0.116,0.016,0.174
			c0.014,0.113,0.016,0.225,0.032,0.338l10.53,71.027h-10.348l-35.649-75.726c-1.678-3.563-5.238-5.82-9.227-5.739l-30.57,0.549
			c-0.052,0.001-0.104,0.003-0.155,0.004l-20.105,0.675C167.277,123.645,164.472,122.448,162.303,120.186z M209.456,433.434
			c-60.142-19.641-103.718-76.26-103.718-142.874c0-19.115,3.689-37.595,10.431-54.676c10.005,5.66,23.511,6.718,35.185,7.625
			c8.613,0.669,17.519,1.361,23.115,3.585c4.412,1.753,5.118,3.58,5.031,7.012c-0.181,7.166-8.723,13.796-17.766,20.816
			c-13.873,10.768-31.138,24.169-25.815,47.495c5.502,24.117,25.116,25.233,39.439,26.048c8.514,0.485,17.318,0.986,25.111,4.922
			c8.329,4.206,14.645,12.052,17.783,22.094C221.771,386.741,222.823,405.668,209.456,433.434z M256.001,440.821
			c-9.151,0.001-18.111-0.824-26.813-2.398c14.327-31.734,12.588-54.714,8.152-68.908c-4.766-15.248-14.659-27.316-27.857-33.981
			c-11.513-5.814-23.422-6.492-32.991-7.037c-15.818-0.9-19.092-1.834-21.075-10.529c-2.241-9.821,4.26-16.132,18.58-27.247
			c11.754-9.124,25.077-19.465,25.496-36.112c0.217-8.623-2.667-20.151-17.639-26.101c-8.413-3.343-18.855-4.155-28.952-4.939
			c-10.813-0.84-22.809-1.776-28.088-5.924c19.337-34.613,52.009-61.268,91.646-72.069l34.119,72.475
			c1.65,3.504,5.175,5.741,9.048,5.741h28.284c0.006,0,0.014,0,0.02,0c5.523,0,10.001-4.477,10.001-10
			c0-0.727-0.078-1.435-0.226-2.118L287.62,143.64c55.165,11.789,98.423,53.628,113.172,106.725
			c-18.86,1.273-26.701,18.078-31.783,28.988c-2.571,5.52-5.224,11.214-8.122,13.513c-2.654-1.18-8.004-6.322-11.309-9.498
			c-9.076-8.722-20.41-19.551-34.487-19.155c-8.044,0.241-15.572,4.1-22.376,11.471c-14.607,15.824-20.076,28.6-17.733,41.423
			c2.121,11.613,10.224,20.278,19.606,30.311l1.756,1.88c0.122,0.13,0.247,0.257,0.375,0.381
			c21.243,20.486,20.148,27.663,18.763,36.749c-1.693,11.096-2.058,21.83,9.046,37.836
			C303.969,434.844,280.67,440.821,256.001,440.821z M341.687,413.924c-8.397-11.577-7.514-17.398-6.434-24.479
			c2.284-14.975,1.931-28.464-24.461-53.978l-1.597-1.708c-7.527-8.05-13.474-14.408-14.54-20.245
			c-0.394-2.157-1.593-8.72,12.755-24.264c3.022-3.273,5.808-4.971,8.278-5.045c5.753-0.189,13.654,7.456,20.03,13.584
			c9.546,9.173,21.427,20.592,34.647,12.778c8.511-5.029,12.712-14.047,16.773-22.769c5.916-12.702,9.084-18.324,17.759-17.455
			c0.896,6.623,1.365,13.372,1.365,20.217C406.263,341.59,380.687,386.752,341.687,413.924z"/>
	</g>
</g>
<g>
	<g>
		<path d="M424.447,145.576c-3.588-4.169-7.387-8.263-11.291-12.168c-3.905-3.905-10.237-3.906-14.143-0.002
			c-3.905,3.905-3.906,10.237-0.002,14.143c3.553,3.554,7.011,7.28,10.275,11.073c1.979,2.298,4.773,3.477,7.585,3.477
			c2.31,0,4.63-0.795,6.519-2.42C427.575,156.076,428.049,149.762,424.447,145.576z"/>
	</g>
</g>
<g>
	<g>
		<path d="M463.874,211.932c-1.947-5.148-4.116-10.294-6.448-15.296c-2.333-5.005-8.28-7.173-13.289-4.838
			c-5.005,2.333-7.172,8.283-4.838,13.288c2.122,4.553,4.097,9.236,5.868,13.921c1.514,4.001,5.317,6.465,9.356,6.465
			c1.175,0,2.371-0.209,3.535-0.649C463.224,222.869,465.828,217.098,463.874,211.932z"/>
	</g>
</g>
<g>
	<g>
		<path d="M477.403,271.191c-0.479-5.502-5.33-9.572-10.832-9.092s-9.572,5.33-9.092,10.832c0.438,5.008,0.69,10.084,0.754,15.089
			c0.068,5.48,4.532,9.874,9.996,9.874c0.043,0,0.086,0,0.129-0.001c5.522-0.069,9.942-4.602,9.873-10.124
			C478.161,282.27,477.883,276.692,477.403,271.191z"/>
	</g>
</g>
<g>
	<g>
		<path d="M463.604,335.835c-5.337-1.431-10.817,1.737-12.247,7.071c-1.298,4.843-2.796,9.7-4.452,14.435
			c-1.824,5.213,0.923,10.917,6.136,12.742c1.093,0.382,2.207,0.564,3.303,0.564c4.131,0,7.997-2.58,9.439-6.7
			c1.821-5.204,3.468-10.541,4.893-15.864C472.104,342.747,468.938,337.264,463.604,335.835z"/>
	</g>
</g>
<g>
	<g>
		<path d="M435.599,404.109c-4.523-3.168-10.759-2.069-13.928,2.455c-2.88,4.113-5.948,8.165-9.12,12.043
			c-3.497,4.275-2.866,10.575,1.409,14.072c1.858,1.52,4.099,2.26,6.325,2.26c2.896,0,5.77-1.253,7.746-3.669
			c3.486-4.262,6.858-8.714,10.022-13.232C441.222,413.513,440.123,407.277,435.599,404.109z"/>
	</g>
</g>
<g>
	<g>
		<path d="M385.93,458.687c-3.167-4.524-9.401-5.622-13.927-2.455c-4.107,2.877-8.376,5.633-12.688,8.194
			c-4.748,2.821-6.31,8.957-3.49,13.705c1.869,3.147,5.194,4.895,8.607,4.895c1.736,0,3.496-0.453,5.098-1.404
			c4.738-2.815,9.431-5.845,13.945-9.007C387.999,469.447,389.099,463.211,385.93,458.687z"/>
	</g>
</g>
<g>
	<g>
		<path d="M320.591,492.987c-1.428-5.334-6.907-8.503-12.247-7.07c-4.829,1.294-9.785,2.425-14.729,3.362
			c-5.426,1.028-8.991,6.261-7.963,11.687c0.909,4.797,5.104,8.14,9.814,8.14c0.617,0,1.244-0.058,1.873-0.177
			c5.429-1.029,10.873-2.272,16.182-3.694C318.855,503.805,322.021,498.322,320.591,492.987z"/>
	</g>
</g>
<g>
	<g>
		<path d="M238.372,492.038c-4.985-0.436-10.027-1.067-14.987-1.878c-5.469-0.896-10.592,2.807-11.482,8.256
			c-0.891,5.451,2.806,10.591,8.256,11.482c5.451,0.891,10.993,1.585,16.474,2.064c0.296,0.026,0.59,0.039,0.882,0.039
			c5.129,0,9.496-3.925,9.95-9.13C247.945,497.368,243.875,492.518,238.372,492.038z"/>
	</g>
</g>
<g>
	<g>
		<path d="M170.527,473.859c-4.55-2.122-9.072-4.44-13.443-6.892c-4.816-2.7-10.911-0.986-13.614,3.831
			c-2.701,4.817-0.985,10.912,3.831,13.613c4.804,2.694,9.774,5.242,14.773,7.573c1.367,0.638,2.805,0.939,4.22,0.939
			c3.766,0,7.373-2.138,9.069-5.776C177.698,482.144,175.534,476.194,170.527,473.859z"/>
	</g>
</g>
<g>
	<g>
		<path d="M112.99,433.571c-3.552-3.554-7.01-7.279-10.274-11.073c-3.604-4.186-9.915-4.66-14.104-1.057
			c-4.186,3.603-4.659,9.917-1.057,14.103c3.588,4.169,7.387,8.263,11.291,12.168c1.953,1.953,4.513,2.93,7.072,2.93
			s5.118-0.976,7.07-2.928C116.892,443.809,116.893,437.477,112.99,433.571z"/>
	</g>
</g>
<g>
	<g>
		<path d="M72.701,376.033c-2.116-4.539-4.091-9.222-5.867-13.919c-1.954-5.166-7.725-7.769-12.892-5.816
			c-5.165,1.954-7.769,7.726-5.815,12.891c1.952,5.162,4.122,10.308,6.449,15.297c1.696,3.638,5.303,5.776,9.069,5.776
			c1.415,0,2.853-0.302,4.22-0.94C72.872,386.988,75.036,381.038,72.701,376.033z"/>
	</g>
</g>
<g>
	<g>
		<path d="M54.522,308.187c-0.438-4.994-0.69-10.07-0.754-15.087c-0.068-5.48-4.532-9.874-9.996-9.874c-0.043,0-0.086,0-0.129,0.001
			c-5.522,0.069-9.942,4.602-9.873,10.125c0.069,5.513,0.348,11.092,0.828,16.581c0.455,5.205,4.822,9.128,9.95,9.128
			c0.292,0,0.587-0.013,0.884-0.039C50.935,318.54,55.003,313.689,54.522,308.187z"/>
	</g>
</g>
<g>
	<g>
		<path d="M58.959,211.038c-5.213-1.824-10.917,0.924-12.741,6.136c-1.821,5.203-3.468,10.54-4.894,15.864
			c-1.429,5.335,1.737,10.818,7.072,12.248c0.867,0.233,1.737,0.343,2.594,0.343c4.416,0,8.456-2.947,9.653-7.415
			c1.298-4.844,2.796-9.7,4.452-14.434C66.919,218.567,64.172,212.862,58.959,211.038z"/>
	</g>
</g>
<g>
	<g>
		<path d="M98.042,148.443c-4.275-3.498-10.577-2.865-14.072,1.409c-3.493,4.27-6.865,8.723-10.023,13.235
			c-3.167,4.525-2.066,10.76,2.458,13.927c1.745,1.222,3.745,1.809,5.726,1.809c3.152-0.002,6.254-1.489,8.2-4.268
			c2.873-4.104,5.941-8.155,9.119-12.04C102.946,158.24,102.315,151.94,98.042,148.443z"/>
	</g>
</g>
<g>
	<g>
		<path d="M361.826,206.406c-8.433-10.604-18.382-19.855-29.57-27.497c-4.558-3.113-10.782-1.944-13.897,2.618
			c-3.116,4.562-1.943,10.785,2.617,13.899c9.533,6.511,18.011,14.394,25.195,23.429c1.975,2.483,4.89,3.776,7.834,3.776
			c2.181,0,4.378-0.71,6.218-2.174C364.544,217.02,365.263,210.729,361.826,206.406z"/>
	</g>
</g>
<g>
	<g>
		<path d="M378.406,233.136l-0.226-0.477c-2.356-4.995-8.313-7.134-13.31-4.778c-4.995,2.356-7.134,8.315-4.778,13.31l0.214,0.456
			c1.704,3.622,5.302,5.747,9.057,5.747c1.425,0,2.873-0.306,4.248-0.953C378.608,244.091,380.755,238.134,378.406,233.136z"/>
	</g>
</g>
<g>
</g>
<g>
</g>
<g>
</g>
<g>
</g>
<g>
</g>
<g>
</g>
<g>
</g>
<g>
</g>
<g>
</g>
<g>
</g>
<g>
</g>
<g>
</g>
<g>
</g>
<g>
</g>
<g>
</g>
</svg>
