<?xml version="1.0" encoding="iso-8859-1"?>
<!-- Generator: Adobe Illustrator 19.0.0, SVG Export Plug-In . SVG Version: 6.00 Build 0)  -->
<svg version="1.1" id="Capa_1" xmlns="http://www.w3.org/2000/svg" xmlns:xlink="http://www.w3.org/1999/xlink" width="80px" height="80px"
	 viewBox="0 0 512 512" style="enable-background:new 0 0 512 512;" xml:space="preserve">
<g>
	<g>
		<g>
			<rect y="336" width="173" height="40"/>
			<rect y="416" width="143" height="40"/>
			<rect y="256" width="203" height="40"/>
			<path d="M444.464,110.748l18.22-21.097l22.705,19.609l26.145-30.272l-75.682-65.362l-26.145,30.272l22.705,19.609L414.17,84.63
				C379.546,59.52,338.956,44.429,296,40.847V0h-40v40.847c-43.211,3.603-84.027,18.851-118.784,44.227l-18.627-21.568
				l22.705-19.609l-26.145-30.272L39.467,78.987l26.145,30.272L88.317,89.65l18.681,21.631C78.078,140.936,57.879,176.881,47.67,216
				h41.736C114.809,137.185,188.846,80,276,80c108.075,0,196,87.925,196,196s-87.925,196-196,196c-33.633,0-65.313-8.519-93-23.507
				v44.53C212.001,505.457,243.496,512,276,512c63.038,0,122.303-24.548,166.877-69.123C487.452,398.303,512,339.038,512,276
				C512,213.72,488.025,155.134,444.464,110.748z"/>
			<polygon points="256,120 256,296 389,296 389,256 296,256 296,120 			"/>
		</g>
	</g>
</g>
<g>
</g>
<g>
</g>
<g>
</g>
<g>
</g>
<g>
</g>
<g>
</g>
<g>
</g>
<g>
</g>
<g>
</g>
<g>
</g>
<g>
</g>
<g>
</g>
<g>
</g>
<g>
</g>
<g>
</g>
</svg>
